<?xml version="1.0" encoding="UTF-8" standalone="no"?>
<!-- Created with Inkscape (http://www.inkscape.org/) -->

<svg
   xmlns:dc="http://purl.org/dc/elements/1.1/"
   xmlns:cc="http://creativecommons.org/ns#"
   xmlns:rdf="http://www.w3.org/1999/02/22-rdf-syntax-ns#"
   xmlns:svg="http://www.w3.org/2000/svg"
   xmlns="http://www.w3.org/2000/svg"
   xmlns:sodipodi="http://sodipodi.sourceforge.net/DTD/sodipodi-0.dtd"
   xmlns:inkscape="http://www.inkscape.org/namespaces/inkscape"
   width="421.689"
   height="369.88699"
   id="svg3957"
   version="1.1"
   inkscape:version="0.48.4 r9939"
   sodipodi:docname="satellite.svg">
  <defs
     id="defs3959" />
  <sodipodi:namedview
     id="base"
     pagecolor="#ffffff"
     bordercolor="#666666"
     borderopacity="1.0"
     inkscape:pageopacity="0.0"
     inkscape:pageshadow="2"
     inkscape:zoom="0.49497475"
     inkscape:cx="155.42072"
     inkscape:cy="251.84971"
     inkscape:document-units="px"
     inkscape:current-layer="layer1"
     showgrid="false"
     fit-margin-top="0"
     fit-margin-left="0"
     fit-margin-right="0"
     fit-margin-bottom="0"
     inkscape:window-width="681"
     inkscape:window-height="726"
     inkscape:window-x="683"
     inkscape:window-y="20"
     inkscape:window-maximized="0" />
  <metadata
     id="metadata3962">
    <rdf:RDF>
      <cc:Work
         rdf:about="">
        <dc:format>image/svg+xml</dc:format>
        <dc:type
           rdf:resource="http://purl.org/dc/dcmitype/StillImage" />
        <dc:title></dc:title>
      </cc:Work>
    </rdf:RDF>
  </metadata>
  <g
     inkscape:label="Ebene 1"
     inkscape:groupmode="layer"
     id="layer1"
     transform="translate(-217.72693,-441.7044)">
    <path
       style="fill:#fff"
       inkscape:connector-curvature="0"
       id="path3104"
       d="m 498.24493,696.9424 c -0.05,0.048 -0.102,0.096 -0.152,0.145 l 21.569,21.645 c 0.045,0.045 0.077,0.095 0.117,0.142 0.535,-0.297 1.106,-0.535 1.708,-0.699 l -5.11,-42.305 c -5.1,7.258 -11.199,14.389 -18.132,21.072 z" />
    <path
       style="fill:#fff"
       inkscape:connector-curvature="0"
       id="path3106"
       d="m 516.83593,721.5474 -21.66,-21.737 c -6.165,5.625 -12.635,10.603 -19.185,14.822 l 40.102,9.579 c 0.144,-0.913 0.439,-1.774 0.879,-2.554 -0.046,-0.038 -0.093,-0.067 -0.136,-0.11 z" />
    <path
        style="fill:#fff"
       inkscape:connector-curvature="0"
       id="path3108"
       d="m 553.15993,709.5974 c -1.357,0 -2.459,1.099 -2.463,2.456 -0.004,1.614 -0.546,39.543 -39.541,39.543 -1.359,0 -2.46,1.102 -2.46,2.461 0,1.36 1.101,2.463 2.46,2.463 43.957,0 44.464,-44.021 44.464,-44.464 0,-1.359 -1.099,-2.459 -2.458,-2.459 h -0.002 z" />
    <path
       style="fill:#fff"
       inkscape:connector-curvature="0"
       id="path3110"
       d="m 588.16093,689.7774 c -1.478,0 -2.676,1.198 -2.676,2.677 0,0.424 -0.322,42.77 -28.251,70.598 -16.242,16.183 -38.631,24.385 -66.56,24.385 -0.173,0 -0.343,0 -0.521,0 -1.474,0 -2.669,1.192 -2.676,2.666 -0.004,1.479 1.189,2.681 2.668,2.687 0.176,0 0.353,0 0.528,0 29.397,0 53.058,-8.727 70.338,-25.944 29.486,-29.384 29.825,-72.567 29.825,-74.391 0.002,-1.48 -1.197,-2.678 -2.675,-2.678 z" />
    <path
       style="fill:#fff"
       inkscape:connector-curvature="0"
       id="path3112"
       d="m 516.08193,728.1654 c 0.114,0.028 0.228,0.034 0.34,0.041 0.468,1.458 1.297,2.833 2.432,3.979 1.874,1.889 4.387,2.971 6.892,2.971 2.074,0 3.991,-0.749 5.4,-2.106 1.441,-1.387 2.247,-3.304 2.271,-5.399 0.027,-2.45 -1.018,-4.925 -2.87,-6.794 -1.451,-1.46 -3.284,-2.433 -5.198,-2.8 l -5.688,-47.097 c 8.757,-13.774 13.799,-27.732 13.933,-39.685 0.099,-8.659 -2.48,-15.888 -7.458,-20.904 -5.07,-5.113 -12.514,-7.815 -21.524,-7.815 -6.913,0 -14.517,1.545 -22.391,4.421 l -18.085,-18.231 12.519,-12.063 19.052,19.206 92.325,-88.986 -52.295,-52.715 -92.327,88.982 20.296,20.459 -12.518,12.064 -37.626,-37.931 -0.391,0.376 c -0.031,-0.032 -0.057,-0.068 -0.088,-0.1 -3.396,-3.423 -8.35,-5.233 -14.327,-5.233 -12.897,0 -29.456,8.237 -43.215,21.497 -13.914,13.409 -22.646,29.679 -22.791,42.46 -0.065,5.753 1.665,10.573 5.002,13.938 0.021,0.021 0.045,0.039 0.066,0.061 l -0.388,0.374 37.005,37.304 -13.159,12.68 -19.672,-19.83 -92.329,88.985 52.295,52.718 92.329,-88.986 -19.673,-19.832 13.158,-12.681 19.289,19.445 c -2.713,7.232 -4.204,14.225 -4.276,20.64 -0.098,8.661 2.481,15.889 7.458,20.904 5.072,5.111 12.516,7.814 21.525,7.814 11.981,0 26.035,-4.638 39.98,-12.812 l 44.722,10.681 z m -40.091,-13.532 c 6.55,-4.219 13.02,-9.197 19.185,-14.822 l 21.66,21.737 c 0.042,0.042 0.09,0.072 0.135,0.111 -0.439,0.78 -0.735,1.641 -0.879,2.554 l -40.101,-9.58 z m 43.787,4.24 c -0.04,-0.047 -0.072,-0.097 -0.117,-0.142 l -21.569,-21.645 c 0.05,-0.049 0.102,-0.096 0.152,-0.145 6.934,-6.683 13.032,-13.814 18.131,-21.072 l 5.11,42.305 c -0.601,0.165 -1.172,0.403 -1.707,0.699 z" />
  </g>
</svg>
